<svg width="188" height="52" viewBox="0 0 188 52" fill="none" xmlns="http://www.w3.org/2000/svg" role="img" aria-labelledby="title">
  <title id="title">Хлопок</title>
  <path d="M9.8 10.3C12.4 10.3 13.7 11.4 15.1 14.4L20.7 26.5L26.1 14.5C27.4 11.6 28.8 10.3 31.3 10.3H33.1V11.5C30.5 11.8 29.2 13.2 27.6 16.8L22.2 28.8L28.8 42.7C30.2 45.6 31.7 46.8 34.2 47.1V48.3H23.7V47.1C26.1 46.8 26.6 45.7 25.4 43.1L20.2 31.9L15.4 42.8C14.2 45.5 14.8 46.7 17.3 47.1V48.3H8.1V47.1C10.7 46.7 12.1 45.4 13.7 41.9L18.7 30.5L11.9 15.9C10.6 13.2 9.4 11.8 7 11.5V10.3H9.8Z" fill="#1D1B19"/>
  <path d="M45.9 20.8C53.8 20.8 59.9 26.3 59.9 34.8C59.9 43.1 53.9 48.9 45.7 48.9C37.8 48.9 31.7 43.4 31.7 34.9C31.7 26.5 37.8 20.8 45.9 20.8ZM45.8 22.3C40.7 22.3 37.8 27.1 37.8 34.8C37.8 42.5 40.8 47.4 45.8 47.4C50.9 47.4 53.8 42.6 53.8 34.8C53.8 27.1 50.8 22.3 45.8 22.3Z" fill="#1D1B19"/>
  <path d="M83.3 47.1V48.3H73.4V47.1C76 46.8 76.8 45.7 76.8 42.8V23.3H70.7C70.2 37.8 67.6 48.9 62.3 48.9C59.9 48.9 58.2 47.4 58.2 45.5C58.2 44.1 59.1 43.1 60.5 43.1C61.8 43.1 62.6 44 62.6 45.1C62.6 45.7 62.4 46.1 62.1 46.5C62.3 46.7 62.6 46.8 63 46.8C66.2 46.8 68.6 35.8 68.9 23.4C66.4 23.7 65.6 24.8 65.4 27H64.2V21.4H83.2V22.6C80.6 22.9 79.8 24 79.8 26.9V42.8C79.8 45.7 80.6 46.8 83.3 47.1Z" fill="#1D1B19"/>
  <path d="M99.9 20.8C107.8 20.8 113.9 26.3 113.9 34.8C113.9 43.1 107.9 48.9 99.7 48.9C91.8 48.9 85.7 43.4 85.7 34.9C85.7 26.5 91.8 20.8 99.9 20.8ZM99.8 22.3C94.7 22.3 91.8 27.1 91.8 34.8C91.8 42.5 94.8 47.4 99.8 47.4C104.9 47.4 107.8 42.6 107.8 34.8C107.8 27.1 104.8 22.3 99.8 22.3Z" fill="#1D1B19"/>
  <path d="M122.7 45.6C122.7 48.5 123.5 49.6 126.1 49.9V51.1H116.1V49.9C118.8 49.6 119.6 48.5 119.6 45.6V27C119.6 24.1 118.8 23 116.1 22.7V21.5H124.1L124.5 25.8C126.2 22.8 129.4 20.8 133.5 20.8C140.1 20.8 145.2 26.1 145.2 34.5C145.2 43.1 139.8 48.9 132.8 48.9C128.7 48.9 125.5 47 123.7 44.1V45.6H122.7ZM132.2 46.8C136.8 46.8 139.3 42.2 139.3 34.9C139.3 27.4 136.6 22.9 132.1 22.9C127.1 22.9 123.7 27.6 123.7 34.9C123.7 42.2 127.2 46.8 132.2 46.8Z" fill="#1D1B19"/>
  <path d="M161.1 20.8C169 20.8 175.1 26.3 175.1 34.8C175.1 43.1 169.1 48.9 160.9 48.9C153 48.9 146.9 43.4 146.9 34.9C146.9 26.5 153 20.8 161.1 20.8ZM161 22.3C155.9 22.3 153 27.1 153 34.8C153 42.5 156 47.4 161 47.4C166.1 47.4 169 42.6 169 34.8C169 27.1 166 22.3 161 22.3Z" fill="#1D1B19"/>
  <path d="M177.2 12.8C181 13.1 184 16.2 184.3 20C180.5 19.7 177.5 16.6 177.2 12.8Z" fill="#8F2B20"/>
  <path d="M184.4 12.8C184.1 16.6 181.1 19.7 177.3 20C177.6 16.2 180.6 13.1 184.4 12.8Z" fill="#8F2B20" fill-opacity="0.78"/>
</svg>
